<svg width="200" height="184" viewBox="0 0 200 184" fill="none" xmlns="http://www.w3.org/2000/svg">
<path d="M73.8281 0.251161C63.6249 1.14604 56.4999 3.1085 48.2812 7.23751C30.5624 16.1863 17.7968 32.7338 13.6093 52.2013C12.0937 59.2662 11.7499 67.43 12.6718 74.5734C14.0781 85.5317 18.2187 96.0034 24.6718 104.921C28.5156 110.227 33.2343 115.016 38.5156 119.003C51.4218 128.721 67.4218 133.306 83.4374 131.861C92.2031 131.061 101.734 127.827 109.766 122.944C110.766 122.332 111.687 121.829 111.797 121.829C111.906 121.829 112.109 122.159 112.266 122.567C112.719 123.807 113.719 125.597 114.547 126.649C115.078 127.309 122.641 134.012 137.234 146.745C163.812 169.964 162.687 168.991 163.75 169.713C165.453 170.875 167.75 171.833 169.875 172.241C171.156 172.492 174.672 172.492 175.859 172.241C180.047 171.362 183.531 169.164 185.984 165.867C188.328 162.696 189.375 159.226 189.172 155.207C188.969 151.47 187.734 148.299 185.359 145.457C184.156 144.013 137.953 103.649 136.062 102.377C135.297 101.875 134.297 101.294 133.828 101.106C133.359 100.917 132.969 100.682 132.969 100.588C132.969 100.509 133.547 99.473 134.25 98.2955C139.891 88.9071 142.937 79.142 143.437 68.9529C144.141 54.3522 139.734 39.5474 131.125 27.5686C122.234 15.1815 109.172 6.16993 94.6249 2.35492C90.3281 1.24024 87.7656 0.800649 82.3593 0.31396C78.4531 -0.0471327 77.1874 -0.0471327 73.8281 0.251161ZM81.8593 18.3058C94.2656 19.6402 106.078 26.3126 113.562 36.1877C115.422 38.6368 116.953 41.1331 118.359 44.0375C120.781 48.9986 122.125 53.4573 122.906 59.0307C123.328 62.0293 123.297 68.0894 122.828 71.1194C122 76.6771 120.516 81.3242 118.031 86.2068C111.969 98.1071 101.484 106.522 88.2812 110.039C81.0312 111.986 72.3749 111.954 65.0312 109.96C52.0937 106.459 41.5937 98.0286 35.6562 86.3952C32.9687 81.1044 31.5312 76.4887 30.5937 70.099C30.4687 69.1884 30.3906 67.2102 30.4062 64.6041C30.4062 61.1972 30.4687 60.1454 30.7656 58.2457C33.1249 42.7344 42.1562 30.0334 55.7031 23.1413C64.0624 18.9024 72.6562 17.301 81.8593 18.3058Z" fill="#FF6663"/>
<path d="M72.4218 22.2307C67.5937 22.7331 63.5312 23.8164 59.375 25.7317C45.5625 32.043 36.5312 46.2198 36.5625 61.4642C36.5781 64.5727 37.2812 69.0785 37.75 69.0785C37.875 69.0785 38.0156 68.9686 38.0625 68.843C38.125 68.7174 38.2812 68.6075 38.4375 68.6075C38.5937 68.6075 38.75 68.4976 38.8125 68.372C38.8593 68.2464 39 68.1365 39.125 68.1365C39.2343 68.1365 39.375 68.0266 39.4375 67.901C39.4843 67.7754 39.625 67.6655 39.7343 67.6655C39.8593 67.6655 40.1406 67.5242 40.3437 67.3515C40.5625 67.1788 41.4375 66.6764 42.2812 66.2369C43.1406 65.7973 43.8906 65.3734 43.9843 65.2949C44.0625 65.2164 44.2343 65.1536 44.375 65.1536C44.5 65.1536 44.7968 65.028 45 64.8867C45.2187 64.7297 45.9843 64.4157 46.7031 64.1645C47.4375 63.929 48.1406 63.6307 48.2656 63.5208C48.4062 63.4109 48.7343 63.2696 48.9843 63.2225C49.4375 63.144 50.1562 62.9242 50.9375 62.5945C51.1562 62.5003 51.5468 62.4061 51.7968 62.359C52.0625 62.3276 52.375 62.202 52.5156 62.0764C52.6406 61.9508 52.9843 61.8566 53.25 61.8566C53.5156 61.8566 53.7656 61.7938 53.8125 61.7154C53.8593 61.6369 54.1718 61.527 54.4843 61.4642C54.8125 61.4014 55.1562 61.3072 55.2343 61.2444C55.3281 61.1659 55.8437 61.0246 56.4062 60.9147C56.9687 60.8048 57.5 60.6635 57.5781 60.6007C57.6718 60.5379 57.9062 60.4437 58.125 60.4123C59.375 60.1454 61.4531 59.5645 62.9218 59.0935C63.5312 58.8894 64.1718 58.7167 64.3281 58.7167C64.5 58.7167 64.7656 58.6068 64.9375 58.4812C65.0937 58.3556 65.4375 58.2457 65.6718 58.2457C65.9062 58.2457 66.375 58.1044 66.7187 57.9317C67.0625 57.759 67.5156 57.6177 67.7343 57.6177C67.9531 57.6177 68.3906 57.5078 68.7187 57.3665C69.6093 56.9741 72.2968 56.0635 73.5781 55.7181C74.2031 55.5454 74.9843 55.2628 75.3281 55.1058C75.6562 54.9331 76.125 54.7918 76.3593 54.7918C76.5937 54.7918 76.9687 54.6505 77.1875 54.4778C77.4062 54.3051 77.7343 54.1638 77.9062 54.1638C78.0937 54.1638 78.5781 54.0225 79 53.8341C80.1406 53.3474 80.3281 53.2846 81.0156 53.0805C81.5468 52.9078 84.0468 51.9345 86.7656 50.8355C87.1718 50.6785 87.9843 50.3959 88.5625 50.2232C89.1406 50.0348 89.6718 49.8307 89.7656 49.7522C89.8437 49.6737 90.0312 49.6109 90.1875 49.6109C90.3281 49.6109 90.6875 49.5167 90.9687 49.3911C91.5781 49.1399 93.9687 48.402 94.5312 48.3078C94.75 48.2607 95.5156 48.0566 96.25 47.8369C97.5937 47.4444 100.125 47.0205 102.266 46.8321C103.422 46.7379 103.422 46.7379 103.641 46.1727C104.312 44.4771 105.312 39.1078 105.312 37.1454V36.2348L102.859 33.77C96.7187 27.6157 90 24.0519 81.7968 22.5918C80.3593 22.3406 79.125 22.2464 76.4843 22.215C74.5937 22.1836 72.7656 22.1993 72.4218 22.2307Z" fill="#FF6663"/>
<path d="M83.75 151.91C81.4844 152.334 79.8438 153.15 79.8438 153.841C79.8438 154.218 80.5781 154.877 81.4063 155.254C82.8125 155.866 84.7031 156.133 87.8906 156.117C91.25 156.102 92.7188 155.882 94.3125 155.128C96.0156 154.328 96.0625 153.496 94.4688 152.742C92.8594 151.988 91.6563 151.784 88.2031 151.722C85.8438 151.69 84.75 151.737 83.75 151.91Z" fill="#FF6663"/>
</svg>
