<svg width="32" height="30" viewBox="0 0 32 30" fill="none" xmlns="http://www.w3.org/2000/svg">
<path d="M11.8125 0.0401772C10.18 0.183358 9.03999 0.497351 7.72499 1.15799C4.88999 2.5898 2.84749 5.23739 2.17749 8.35221C1.93499 9.48258 1.87999 10.7888 2.02749 11.9317C2.25249 13.6851 2.91499 15.3605 3.94749 16.7873C4.56249 17.6364 5.31749 18.4025 6.16249 19.0405C8.22749 20.5954 10.7875 21.3289 13.35 21.0978C14.7525 20.9697 16.2775 20.4522 17.5625 19.671C17.7225 19.5731 17.87 19.4927 17.8875 19.4927C17.905 19.4927 17.9375 19.5454 17.9625 19.6107C18.035 19.8092 18.195 20.0956 18.3275 20.2639C18.4125 20.3694 19.6225 21.442 21.9575 23.4791C26.21 27.1943 26.03 27.0386 26.2 27.1541C26.4725 27.34 26.84 27.4932 27.18 27.5585C27.385 27.5987 27.9475 27.5987 28.1375 27.5585C28.8075 27.4179 29.365 27.0662 29.7575 26.5387C30.1325 26.0313 30.3 25.4761 30.2675 24.8331C30.235 24.2352 30.0375 23.7278 29.6575 23.2732C29.465 23.0421 22.0725 16.5839 21.77 16.3804C21.6475 16.3 21.4875 16.2071 21.4125 16.1769C21.3375 16.1468 21.275 16.1091 21.275 16.094C21.275 16.0815 21.3675 15.9157 21.48 15.7273C22.3825 14.2251 22.87 12.6627 22.95 11.0325C23.0625 8.69634 22.3575 6.32758 20.98 4.41096C19.5575 2.42904 17.4675 0.987181 15.14 0.376778C14.4525 0.19843 14.0425 0.128095 13.1775 0.050225C12.5525 -0.00754976 12.35 -0.00754976 11.8125 0.0401772ZM13.0975 2.92891C15.0825 3.14243 16.9725 4.21001 18.17 5.79002C18.4675 6.18188 18.7125 6.58128 18.9375 7.04599C19.325 7.83977 19.54 8.55316 19.665 9.4449C19.7325 9.92468 19.7275 10.8943 19.6525 11.3791C19.52 12.2683 19.2825 13.0119 18.885 13.7931C17.915 15.6971 16.2375 17.0435 14.125 17.6062C12.965 17.9177 11.58 17.9127 10.405 17.5937C8.33499 17.0335 6.65499 15.6846 5.70499 13.8232C5.27499 12.9767 5.04499 12.2382 4.89499 11.2158C4.87499 11.0701 4.86249 10.7536 4.86499 10.3366C4.86499 9.79155 4.87499 9.62325 4.92249 9.3193C5.29999 6.8375 6.74499 4.80534 8.91249 3.70259C10.25 3.02437 11.625 2.76815 13.0975 2.92891Z" fill="#FF6663"/>
<path d="M11.5875 3.55691C10.815 3.63729 10.165 3.81061 9.49999 4.11707C7.28999 5.12687 5.84499 7.39516 5.84999 9.83426C5.85249 10.3316 5.96499 11.0526 6.03999 11.0526C6.05999 11.0526 6.08249 11.035 6.08999 11.0149C6.09999 10.9948 6.12499 10.9772 6.14999 10.9772C6.17499 10.9772 6.19999 10.9596 6.20999 10.9395C6.21749 10.9194 6.23999 10.9018 6.25999 10.9018C6.27749 10.9018 6.29999 10.8843 6.30999 10.8642C6.31749 10.8441 6.33999 10.8265 6.35749 10.8265C6.37749 10.8265 6.42249 10.8039 6.45499 10.7762C6.48999 10.7486 6.62999 10.6682 6.76499 10.5979C6.90249 10.5276 7.02249 10.4597 7.03749 10.4472C7.04999 10.4346 7.07749 10.4246 7.09999 10.4246C7.11999 10.4246 7.16749 10.4045 7.19999 10.3819C7.23499 10.3567 7.35749 10.3065 7.47249 10.2663C7.58999 10.2286 7.70249 10.1809 7.72249 10.1633C7.74499 10.1457 7.79749 10.1231 7.83749 10.1156C7.90999 10.103 8.02499 10.0679 8.14999 10.0151C8.18499 10 8.24749 9.98497 8.28749 9.97744C8.32999 9.97241 8.37999 9.95232 8.40249 9.93222C8.42249 9.91213 8.47749 9.89706 8.51999 9.89706C8.56249 9.89706 8.60249 9.88701 8.60999 9.87445C8.61749 9.86189 8.66749 9.84431 8.71749 9.83426C8.76999 9.82421 8.82499 9.80914 8.83749 9.79909C8.85249 9.78653 8.93499 9.76392 9.02499 9.74634C9.11499 9.72876 9.19999 9.70615 9.21249 9.6961C9.22749 9.68605 9.26499 9.67098 9.29999 9.66596C9.49999 9.62325 9.83249 9.53031 10.0675 9.45495C10.165 9.4223 10.2675 9.39467 10.2925 9.39467C10.32 9.39467 10.3625 9.37708 10.39 9.35699C10.415 9.33689 10.47 9.31931 10.5075 9.31931C10.545 9.31931 10.62 9.2967 10.675 9.26907C10.73 9.24144 10.8025 9.21883 10.8375 9.21883C10.8725 9.21883 10.9425 9.20125 10.995 9.17864C11.1375 9.11584 11.5675 8.97015 11.7725 8.91489C11.8725 8.88725 11.9975 8.84204 12.0525 8.81692C12.105 8.78929 12.18 8.76668 12.2175 8.76668C12.255 8.76668 12.315 8.74407 12.35 8.71644C12.385 8.68881 12.4375 8.6662 12.465 8.6662C12.495 8.6662 12.5725 8.6436 12.64 8.61345C12.8225 8.53558 12.8525 8.52553 12.9625 8.49288C13.0475 8.46525 13.4475 8.30951 13.8825 8.13367C13.9475 8.10855 14.0775 8.06334 14.17 8.0357C14.2625 8.00556 14.3475 7.97291 14.3625 7.96035C14.375 7.94779 14.405 7.93774 14.43 7.93774C14.4525 7.93774 14.51 7.92267 14.555 7.90257C14.6525 7.86238 15.035 7.74432 15.125 7.72925C15.16 7.72171 15.2825 7.68906 15.4 7.65389C15.615 7.59109 16.02 7.52327 16.3625 7.49312C16.5475 7.47805 16.5475 7.47805 16.5825 7.38762C16.69 7.11633 16.85 6.25725 16.85 5.94325V5.79756L16.4575 5.40319C15.475 4.4185 14.4 3.84829 13.0875 3.61468C12.8575 3.57449 12.66 3.55942 12.2375 3.55439C11.935 3.54937 11.6425 3.55188 11.5875 3.55691Z" fill="#FF6663"/>
<path d="M13.4 24.3056C13.0375 24.3734 12.775 24.504 12.775 24.6145C12.775 24.6748 12.8925 24.7803 13.025 24.8406C13.25 24.9386 13.5525 24.9813 14.0625 24.9788C14.6 24.9763 14.835 24.9411 15.09 24.8205C15.3625 24.6924 15.37 24.5593 15.115 24.4387C14.8575 24.3181 14.665 24.2855 14.1125 24.2754C13.735 24.2704 13.56 24.2779 13.4 24.3056Z" fill="#FF6663"/>
</svg>
